<?xml version="1.0" standalone="no"?>
<svg xmlns="http://www.w3.org/2000/svg" width="500" height="500"><defs><clipPath id="clip-path-dot-color"><rect x="25" y="135" width="10" height="10" transform="rotate(0,30,140)"/><rect x="25" y="155" width="10" height="10" transform="rotate(0,30,160)"/><rect x="25" y="195" width="10" height="10" transform="rotate(0,30,200)"/><rect x="25" y="205" width="10" height="10" transform="rotate(0,30,210)"/><rect x="25" y="235" width="10" height="10" transform="rotate(0,30,240)"/><rect x="25" y="245" width="10" height="10" transform="rotate(0,30,250)"/><rect x="25" y="255" width="10" height="10" transform="rotate(0,30,260)"/><rect x="25" y="265" width="10" height="10" transform="rotate(0,30,270)"/><rect x="25" y="275" width="10" height="10" transform="rotate(0,30,280)"/><rect x="25" y="315" width="10" height="10" transform="rotate(0,30,320)"/><rect x="25" y="325" width="10" height="10" transform="rotate(0,30,330)"/><rect x="25" y="335" width="10" height="10" transform="rotate(0,30,340)"/><rect x="25" y="345" width="10" height="10" transform="rotate(0,30,350)"/><rect x="25" y="385" width="10" height="10" transform="rotate(0,30,390)"/><rect x="35" y="105" width="10" height="10" transform="rotate(0,40,110)"/><rect x="35" y="115" width="10" height="10" transform="rotate(0,40,120)"/><rect x="35" y="125" width="10" height="10" transform="rotate(0,40,130)"/><rect x="35" y="145" width="10" height="10" transform="rotate(0,40,150)"/><rect x="35" y="185" width="10" height="10" transform="rotate(0,40,190)"/><rect x="35" y="205" width="10" height="10" transform="rotate(0,40,210)"/><rect x="35" y="215" width="10" height="10" transform="rotate(0,40,220)"/><rect x="35" y="225" width="10" height="10" transform="rotate(0,40,230)"/><rect x="35" y="235" width="10" height="10" transform="rotate(0,40,240)"/><rect x="35" y="255" width="10" height="10" transform="rotate(0,40,260)"/><rect x="35" y="265" width="10" height="10" transform="rotate(0,40,270)"/><rect x="35" y="305" width="10" height="10" transform="rotate(0,40,310)"/><rect x="35" y="325" width="10" height="10" transform="rotate(0,40,330)"/><rect x="35" y="335" width="10" height="10" transform="rotate(0,40,340)"/><rect x="35" y="345" width="10" height="10" transform="rotate(0,40,350)"/><rect x="35" y="375" width="10" height="10" transform="rotate(0,40,380)"/><rect x="45" y="105" width="10" height="10" transform="rotate(0,50,110)"/><rect x="45" y="115" width="10" height="10" transform="rotate(0,50,120)"/><rect x="45" y="135" width="10" height="10" transform="rotate(0,50,140)"/><rect x="45" y="155" width="10" height="10" transform="rotate(0,50,160)"/><rect x="45" y="165" width="10" height="10" transform="rotate(0,50,170)"/><rect x="45" y="175" width="10" height="10" transform="rotate(0,50,180)"/><rect x="45" y="185" width="10" height="10" transform="rotate(0,50,190)"/><rect x="45" y="205" width="10" height="10" transform="rotate(0,50,210)"/><rect x="45" y="245" width="10" height="10" transform="rotate(0,50,250)"/><rect x="45" y="255" width="10" height="10" transform="rotate(0,50,260)"/><rect x="45" y="265" width="10" height="10" transform="rotate(0,50,270)"/><rect x="45" y="285" width="10" height="10" transform="rotate(0,50,290)"/><rect x="45" y="315" width="10" height="10" transform="rotate(0,50,320)"/><rect x="45" y="325" width="10" height="10" transform="rotate(0,50,330)"/><rect x="45" y="335" width="10" height="10" transform="rotate(0,50,340)"/><rect x="45" y="375" width="10" height="10" transform="rotate(0,50,380)"/><rect x="55" y="165" width="10" height="10" transform="rotate(0,60,170)"/><rect x="55" y="175" width="10" height="10" transform="rotate(0,60,180)"/><rect x="55" y="205" width="10" height="10" transform="rotate(0,60,210)"/><rect x="55" y="235" width="10" height="10" transform="rotate(0,60,240)"/><rect x="55" y="265" width="10" height="10" transform="rotate(0,60,270)"/><rect x="55" y="285" width="10" height="10" transform="rotate(0,60,290)"/><rect x="55" y="315" width="10" height="10" transform="rotate(0,60,320)"/><rect x="55" y="335" width="10" height="10" transform="rotate(0,60,340)"/><rect x="55" y="345" width="10" height="10" transform="rotate(0,60,350)"/><rect x="55" y="375" width="10" height="10" transform="rotate(0,60,380)"/><rect x="55" y="385" width="10" height="10" transform="rotate(0,60,390)"/><rect x="65" y="115" width="10" height="10" transform="rotate(0,70,120)"/><rect x="65" y="155" width="10" height="10" transform="rotate(0,70,160)"/><rect x="65" y="195" width="10" height="10" transform="rotate(0,70,200)"/><rect x="65" y="205" width="10" height="10" transform="rotate(0,70,210)"/><rect x="65" y="225" width="10" height="10" transform="rotate(0,70,230)"/><rect x="65" y="235" width="10" height="10" transform="rotate(0,70,240)"/><rect x="65" y="245" width="10" height="10" transform="rotate(0,70,250)"/><rect x="65" y="255" width="10" height="10" transform="rotate(0,70,260)"/><rect x="65" y="265" width="10" height="10" transform="rotate(0,70,270)"/><rect x="65" y="275" width="10" height="10" transform="rotate(0,70,280)"/><rect x="65" y="305" width="10" height="10" transform="rotate(0,70,310)"/><rect x="65" y="355" width="10" height="10" transform="rotate(0,70,360)"/><rect x="65" y="365" width="10" height="10" transform="rotate(0,70,370)"/><rect x="65" y="375" width="10" height="10" transform="rotate(0,70,380)"/><rect x="65" y="385" width="10" height="10" transform="rotate(0,70,390)"/><rect x="75" y="135" width="10" height="10" transform="rotate(0,80,140)"/><rect x="75" y="175" width="10" height="10" transform="rotate(0,80,180)"/><rect x="75" y="225" width="10" height="10" transform="rotate(0,80,230)"/><rect x="75" y="265" width="10" height="10" transform="rotate(0,80,270)"/><rect x="75" y="275" width="10" height="10" transform="rotate(0,80,280)"/><rect x="75" y="295" width="10" height="10" transform="rotate(0,80,300)"/><rect x="75" y="325" width="10" height="10" transform="rotate(0,80,330)"/><rect x="75" y="345" width="10" height="10" transform="rotate(0,80,350)"/><rect x="85" y="105" width="10" height="10" transform="rotate(0,90,110)"/><rect x="85" y="125" width="10" height="10" transform="rotate(0,90,130)"/><rect x="85" y="145" width="10" height="10" transform="rotate(0,90,150)"/><rect x="85" y="165" width="10" height="10" transform="rotate(0,90,170)"/><rect x="85" y="185" width="10" height="10" transform="rotate(0,90,190)"/><rect x="85" y="205" width="10" height="10" transform="rotate(0,90,210)"/><rect x="85" y="225" width="10" height="10" transform="rotate(0,90,230)"/><rect x="85" y="245" width="10" height="10" transform="rotate(0,90,250)"/><rect x="85" y="265" width="10" height="10" transform="rotate(0,90,270)"/><rect x="85" y="285" width="10" height="10" transform="rotate(0,90,290)"/><rect x="85" y="305" width="10" height="10" transform="rotate(0,90,310)"/><rect x="85" y="325" width="10" height="10" transform="rotate(0,90,330)"/><rect x="85" y="345" width="10" height="10" transform="rotate(0,90,350)"/><rect x="85" y="365" width="10" height="10" transform="rotate(0,90,370)"/><rect x="85" y="385" width="10" height="10" transform="rotate(0,90,390)"/><rect x="95" y="115" width="10" height="10" transform="rotate(0,100,120)"/><rect x="95" y="135" width="10" height="10" transform="rotate(0,100,140)"/><rect x="95" y="145" width="10" height="10" transform="rotate(0,100,150)"/><rect x="95" y="155" width="10" height="10" transform="rotate(0,100,160)"/><rect x="95" y="185" width="10" height="10" transform="rotate(0,100,190)"/><rect x="95" y="195" width="10" height="10" transform="rotate(0,100,200)"/><rect x="95" y="205" width="10" height="10" transform="rotate(0,100,210)"/><rect x="95" y="225" width="10" height="10" transform="rotate(0,100,230)"/><rect x="95" y="265" width="10" height="10" transform="rotate(0,100,270)"/><rect x="95" y="305" width="10" height="10" transform="rotate(0,100,310)"/><rect x="95" y="325" width="10" height="10" transform="rotate(0,100,330)"/><rect x="95" y="335" width="10" height="10" transform="rotate(0,100,340)"/><rect x="95" y="355" width="10" height="10" transform="rotate(0,100,360)"/><rect x="95" y="365" width="10" height="10" transform="rotate(0,100,370)"/><rect x="95" y="375" width="10" height="10" transform="rotate(0,100,380)"/><rect x="105" y="35" width="10" height="10" transform="rotate(0,110,40)"/><rect x="105" y="45" width="10" height="10" transform="rotate(0,110,50)"/><rect x="105" y="55" width="10" height="10" transform="rotate(0,110,60)"/><rect x="105" y="75" width="10" height="10" transform="rotate(0,110,80)"/><rect x="105" y="85" width="10" height="10" transform="rotate(0,110,90)"/><rect x="105" y="115" width="10" height="10" transform="rotate(0,110,120)"/><rect x="105" y="165" width="10" height="10" transform="rotate(0,110,170)"/><rect x="105" y="185" width="10" height="10" transform="rotate(0,110,190)"/><rect x="105" y="205" width="10" height="10" transform="rotate(0,110,210)"/><rect x="105" y="225" width="10" height="10" transform="rotate(0,110,230)"/><rect x="105" y="235" width="10" height="10" transform="rotate(0,110,240)"/><rect x="105" y="245" width="10" height="10" transform="rotate(0,110,250)"/><rect x="105" y="255" width="10" height="10" transform="rotate(0,110,260)"/><rect x="105" y="265" width="10" height="10" transform="rotate(0,110,270)"/><rect x="105" y="275" width="10" height="10" transform="rotate(0,110,280)"/><rect x="105" y="295" width="10" height="10" transform="rotate(0,110,300)"/><rect x="105" y="305" width="10" height="10" transform="rotate(0,110,310)"/><rect x="105" y="325" width="10" height="10" transform="rotate(0,110,330)"/><rect x="105" y="355" width="10" height="10" transform="rotate(0,110,360)"/><rect x="105" y="365" width="10" height="10" transform="rotate(0,110,370)"/><rect x="105" y="385" width="10" height="10" transform="rotate(0,110,390)"/><rect x="105" y="445" width="10" height="10" transform="rotate(0,110,450)"/><rect x="105" y="455" width="10" height="10" transform="rotate(0,110,460)"/><rect x="115" y="25" width="10" height="10" transform="rotate(0,120,30)"/><rect x="115" y="45" width="10" height="10" transform="rotate(0,120,50)"/><rect x="115" y="115" width="10" height="10" transform="rotate(0,120,120)"/><rect x="115" y="125" width="10" height="10" transform="rotate(0,120,130)"/><rect x="115" y="155" width="10" height="10" transform="rotate(0,120,160)"/><rect x="115" y="175" width="10" height="10" transform="rotate(0,120,180)"/><rect x="115" y="185" width="10" height="10" transform="rotate(0,120,190)"/><rect x="115" y="195" width="10" height="10" transform="rotate(0,120,200)"/><rect x="115" y="215" width="10" height="10" transform="rotate(0,120,220)"/><rect x="115" y="225" width="10" height="10" transform="rotate(0,120,230)"/><rect x="115" y="235" width="10" height="10" transform="rotate(0,120,240)"/><rect x="115" y="245" width="10" height="10" transform="rotate(0,120,250)"/><rect x="115" y="265" width="10" height="10" transform="rotate(0,120,270)"/><rect x="115" y="275" width="10" height="10" transform="rotate(0,120,280)"/><rect x="115" y="295" width="10" height="10" transform="rotate(0,120,300)"/><rect x="115" y="305" width="10" height="10" transform="rotate(0,120,310)"/><rect x="115" y="315" width="10" height="10" transform="rotate(0,120,320)"/><rect x="115" y="325" width="10" height="10" transform="rotate(0,120,330)"/><rect x="115" y="375" width="10" height="10" transform="rotate(0,120,380)"/><rect x="115" y="385" width="10" height="10" transform="rotate(0,120,390)"/><rect x="115" y="395" width="10" height="10" transform="rotate(0,120,400)"/><rect x="115" y="415" width="10" height="10" transform="rotate(0,120,420)"/><rect x="115" y="445" width="10" height="10" transform="rotate(0,120,450)"/><rect x="115" y="465" width="10" height="10" transform="rotate(0,120,470)"/><rect x="125" y="25" width="10" height="10" transform="rotate(0,130,30)"/><rect x="125" y="65" width="10" height="10" transform="rotate(0,130,70)"/><rect x="125" y="75" width="10" height="10" transform="rotate(0,130,80)"/><rect x="125" y="85" width="10" height="10" transform="rotate(0,130,90)"/><rect x="125" y="95" width="10" height="10" transform="rotate(0,130,100)"/><rect x="125" y="105" width="10" height="10" transform="rotate(0,130,110)"/><rect x="125" y="115" width="10" height="10" transform="rotate(0,130,120)"/><rect x="125" y="125" width="10" height="10" transform="rotate(0,130,130)"/><rect x="125" y="135" width="10" height="10" transform="rotate(0,130,140)"/><rect x="125" y="155" width="10" height="10" transform="rotate(0,130,160)"/><rect x="125" y="185" width="10" height="10" transform="rotate(0,130,190)"/><rect x="125" y="205" width="10" height="10" transform="rotate(0,130,210)"/><rect x="125" y="215" width="10" height="10" transform="rotate(0,130,220)"/><rect x="125" y="225" width="10" height="10" transform="rotate(0,130,230)"/><rect x="125" y="245" width="10" height="10" transform="rotate(0,130,250)"/><rect x="125" y="325" width="10" height="10" transform="rotate(0,130,330)"/><rect x="125" y="335" width="10" height="10" transform="rotate(0,130,340)"/><rect x="125" y="345" width="10" height="10" transform="rotate(0,130,350)"/><rect x="125" y="365" width="10" height="10" transform="rotate(0,130,370)"/><rect x="125" y="375" width="10" height="10" transform="rotate(0,130,380)"/><rect x="125" y="395" width="10" height="10" transform="rotate(0,130,400)"/><rect x="125" y="415" width="10" height="10" transform="rotate(0,130,420)"/><rect x="125" y="445" width="10" height="10" transform="rotate(0,130,450)"/><rect x="125" y="455" width="10" height="10" transform="rotate(0,130,460)"/><rect x="125" y="465" width="10" height="10" transform="rotate(0,130,470)"/><rect x="135" y="35" width="10" height="10" transform="rotate(0,140,40)"/><rect x="135" y="65" width="10" height="10" transform="rotate(0,140,70)"/><rect x="135" y="105" width="10" height="10" transform="rotate(0,140,110)"/><rect x="135" y="135" width="10" height="10" transform="rotate(0,140,140)"/><rect x="135" y="145" width="10" height="10" transform="rotate(0,140,150)"/><rect x="135" y="155" width="10" height="10" transform="rotate(0,140,160)"/><rect x="135" y="205" width="10" height="10" transform="rotate(0,140,210)"/><rect x="135" y="215" width="10" height="10" transform="rotate(0,140,220)"/><rect x="135" y="275" width="10" height="10" transform="rotate(0,140,280)"/><rect x="135" y="345" width="10" height="10" transform="rotate(0,140,350)"/><rect x="135" y="365" width="10" height="10" transform="rotate(0,140,370)"/><rect x="135" y="405" width="10" height="10" transform="rotate(0,140,410)"/><rect x="135" y="415" width="10" height="10" transform="rotate(0,140,420)"/><rect x="135" y="435" width="10" height="10" transform="rotate(0,140,440)"/><rect x="135" y="465" width="10" height="10" transform="rotate(0,140,470)"/><rect x="145" y="45" width="10" height="10" transform="rotate(0,150,50)"/><rect x="145" y="55" width="10" height="10" transform="rotate(0,150,60)"/><rect x="145" y="65" width="10" height="10" transform="rotate(0,150,70)"/><rect x="145" y="85" width="10" height="10" transform="rotate(0,150,90)"/><rect x="145" y="95" width="10" height="10" transform="rotate(0,150,100)"/><rect x="145" y="135" width="10" height="10" transform="rotate(0,150,140)"/><rect x="145" y="145" width="10" height="10" transform="rotate(0,150,150)"/><rect x="145" y="165" width="10" height="10" transform="rotate(0,150,170)"/><rect x="145" y="175" width="10" height="10" transform="rotate(0,150,180)"/><rect x="145" y="185" width="10" height="10" transform="rotate(0,150,190)"/><rect x="145" y="205" width="10" height="10" transform="rotate(0,150,210)"/><rect x="145" y="215" width="10" height="10" transform="rotate(0,150,220)"/><rect x="145" y="235" width="10" height="10" transform="rotate(0,150,240)"/><rect x="145" y="245" width="10" height="10" transform="rotate(0,150,250)"/><rect x="145" y="255" width="10" height="10" transform="rotate(0,150,260)"/><rect x="145" y="265" width="10" height="10" transform="rotate(0,150,270)"/><rect x="145" y="275" width="10" height="10" transform="rotate(0,150,280)"/><rect x="145" y="335" width="10" height="10" transform="rotate(0,150,340)"/><rect x="145" y="365" width="10" height="10" transform="rotate(0,150,370)"/><rect x="155" y="55" width="10" height="10" transform="rotate(0,160,60)"/><rect x="155" y="65" width="10" height="10" transform="rotate(0,160,70)"/><rect x="155" y="75" width="10" height="10" transform="rotate(0,160,80)"/><rect x="155" y="95" width="10" height="10" transform="rotate(0,160,100)"/><rect x="155" y="105" width="10" height="10" transform="rotate(0,160,110)"/><rect x="155" y="115" width="10" height="10" transform="rotate(0,160,120)"/><rect x="155" y="125" width="10" height="10" transform="rotate(0,160,130)"/><rect x="155" y="135" width="10" height="10" transform="rotate(0,160,140)"/><rect x="155" y="145" width="10" height="10" transform="rotate(0,160,150)"/><rect x="155" y="155" width="10" height="10" transform="rotate(0,160,160)"/><rect x="155" y="195" width="10" height="10" transform="rotate(0,160,200)"/><rect x="155" y="205" width="10" height="10" transform="rotate(0,160,210)"/><rect x="155" y="225" width="10" height="10" transform="rotate(0,160,230)"/><rect x="155" y="245" width="10" height="10" transform="rotate(0,160,250)"/><rect x="155" y="255" width="10" height="10" transform="rotate(0,160,260)"/><rect x="155" y="265" width="10" height="10" transform="rotate(0,160,270)"/><rect x="155" y="275" width="10" height="10" transform="rotate(0,160,280)"/><rect x="155" y="285" width="10" height="10" transform="rotate(0,160,290)"/><rect x="155" y="315" width="10" height="10" transform="rotate(0,160,320)"/><rect x="155" y="345" width="10" height="10" transform="rotate(0,160,350)"/><rect x="155" y="355" width="10" height="10" transform="rotate(0,160,360)"/><rect x="155" y="395" width="10" height="10" transform="rotate(0,160,400)"/><rect x="155" y="405" width="10" height="10" transform="rotate(0,160,410)"/><rect x="155" y="415" width="10" height="10" transform="rotate(0,160,420)"/><rect x="155" y="435" width="10" height="10" transform="rotate(0,160,440)"/><rect x="155" y="445" width="10" height="10" transform="rotate(0,160,450)"/><rect x="165" y="45" width="10" height="10" transform="rotate(0,170,50)"/><rect x="165" y="85" width="10" height="10" transform="rotate(0,170,90)"/><rect x="165" y="95" width="10" height="10" transform="rotate(0,170,100)"/><rect x="165" y="105" width="10" height="10" transform="rotate(0,170,110)"/><rect x="165" y="115" width="10" height="10" transform="rotate(0,170,120)"/><rect x="165" y="125" width="10" height="10" transform="rotate(0,170,130)"/><rect x="165" y="185" width="10" height="10" transform="rotate(0,170,190)"/><rect x="165" y="195" width="10" height="10" transform="rotate(0,170,200)"/><rect x="165" y="235" width="10" height="10" transform="rotate(0,170,240)"/><rect x="165" y="245" width="10" height="10" transform="rotate(0,170,250)"/><rect x="165" y="255" width="10" height="10" transform="rotate(0,170,260)"/><rect x="165" y="275" width="10" height="10" transform="rotate(0,170,280)"/><rect x="165" y="285" width="10" height="10" transform="rotate(0,170,290)"/><rect x="165" y="295" width="10" height="10" transform="rotate(0,170,300)"/><rect x="165" y="305" width="10" height="10" transform="rotate(0,170,310)"/><rect x="165" y="325" width="10" height="10" transform="rotate(0,170,330)"/><rect x="165" y="335" width="10" height="10" transform="rotate(0,170,340)"/><rect x="165" y="345" width="10" height="10" transform="rotate(0,170,350)"/><rect x="165" y="385" width="10" height="10" transform="rotate(0,170,390)"/><rect x="165" y="395" width="10" height="10" transform="rotate(0,170,400)"/><rect x="165" y="405" width="10" height="10" transform="rotate(0,170,410)"/><rect x="165" y="425" width="10" height="10" transform="rotate(0,170,430)"/><rect x="165" y="435" width="10" height="10" transform="rotate(0,170,440)"/><rect x="175" y="25" width="10" height="10" transform="rotate(0,180,30)"/><rect x="175" y="35" width="10" height="10" transform="rotate(0,180,40)"/><rect x="175" y="45" width="10" height="10" transform="rotate(0,180,50)"/><rect x="175" y="55" width="10" height="10" transform="rotate(0,180,60)"/><rect x="175" y="75" width="10" height="10" transform="rotate(0,180,80)"/><rect x="175" y="95" width="10" height="10" transform="rotate(0,180,100)"/><rect x="175" y="105" width="10" height="10" transform="rotate(0,180,110)"/><rect x="175" y="115" width="10" height="10" transform="rotate(0,180,120)"/><rect x="175" y="125" width="10" height="10" transform="rotate(0,180,130)"/><rect x="175" y="155" width="10" height="10" transform="rotate(0,180,160)"/><rect x="175" y="175" width="10" height="10" transform="rotate(0,180,180)"/><rect x="175" y="195" width="10" height="10" transform="rotate(0,180,200)"/><rect x="175" y="245" width="10" height="10" transform="rotate(0,180,250)"/><rect x="175" y="255" width="10" height="10" transform="rotate(0,180,260)"/><rect x="175" y="265" width="10" height="10" transform="rotate(0,180,270)"/><rect x="175" y="275" width="10" height="10" transform="rotate(0,180,280)"/><rect x="175" y="285" width="10" height="10" transform="rotate(0,180,290)"/><rect x="175" y="295" width="10" height="10" transform="rotate(0,180,300)"/><rect x="175" y="305" width="10" height="10" transform="rotate(0,180,310)"/><rect x="175" y="325" width="10" height="10" transform="rotate(0,180,330)"/><rect x="175" y="345" width="10" height="10" transform="rotate(0,180,350)"/><rect x="175" y="355" width="10" height="10" transform="rotate(0,180,360)"/><rect x="175" y="365" width="10" height="10" transform="rotate(0,180,370)"/><rect x="175" y="375" width="10" height="10" transform="rotate(0,180,380)"/><rect x="175" y="415" width="10" height="10" transform="rotate(0,180,420)"/><rect x="175" y="425" width="10" height="10" transform="rotate(0,180,430)"/><rect x="175" y="435" width="10" height="10" transform="rotate(0,180,440)"/><rect x="175" y="445" width="10" height="10" transform="rotate(0,180,450)"/><rect x="175" y="455" width="10" height="10" transform="rotate(0,180,460)"/><rect x="185" y="35" width="10" height="10" transform="rotate(0,190,40)"/><rect x="185" y="85" width="10" height="10" transform="rotate(0,190,90)"/><rect x="185" y="95" width="10" height="10" transform="rotate(0,190,100)"/><rect x="185" y="105" width="10" height="10" transform="rotate(0,190,110)"/><rect x="185" y="115" width="10" height="10" transform="rotate(0,190,120)"/><rect x="185" y="125" width="10" height="10" transform="rotate(0,190,130)"/><rect x="185" y="145" width="10" height="10" transform="rotate(0,190,150)"/><rect x="185" y="185" width="10" height="10" transform="rotate(0,190,190)"/><rect x="185" y="195" width="10" height="10" transform="rotate(0,190,200)"/><rect x="185" y="205" width="10" height="10" transform="rotate(0,190,210)"/><rect x="185" y="225" width="10" height="10" transform="rotate(0,190,230)"/><rect x="185" y="255" width="10" height="10" transform="rotate(0,190,260)"/><rect x="185" y="275" width="10" height="10" transform="rotate(0,190,280)"/><rect x="185" y="295" width="10" height="10" transform="rotate(0,190,300)"/><rect x="185" y="315" width="10" height="10" transform="rotate(0,190,320)"/><rect x="185" y="325" width="10" height="10" transform="rotate(0,190,330)"/><rect x="185" y="335" width="10" height="10" transform="rotate(0,190,340)"/><rect x="185" y="345" width="10" height="10" transform="rotate(0,190,350)"/><rect x="185" y="365" width="10" height="10" transform="rotate(0,190,370)"/><rect x="185" y="385" width="10" height="10" transform="rotate(0,190,390)"/><rect x="185" y="395" width="10" height="10" transform="rotate(0,190,400)"/><rect x="185" y="415" width="10" height="10" transform="rotate(0,190,420)"/><rect x="185" y="445" width="10" height="10" transform="rotate(0,190,450)"/><rect x="185" y="465" width="10" height="10" transform="rotate(0,190,470)"/><rect x="195" y="65" width="10" height="10" transform="rotate(0,200,70)"/><rect x="195" y="75" width="10" height="10" transform="rotate(0,200,80)"/><rect x="195" y="105" width="10" height="10" transform="rotate(0,200,110)"/><rect x="195" y="115" width="10" height="10" transform="rotate(0,200,120)"/><rect x="195" y="175" width="10" height="10" transform="rotate(0,200,180)"/><rect x="195" y="185" width="10" height="10" transform="rotate(0,200,190)"/><rect x="195" y="195" width="10" height="10" transform="rotate(0,200,200)"/><rect x="195" y="215" width="10" height="10" transform="rotate(0,200,220)"/><rect x="195" y="245" width="10" height="10" transform="rotate(0,200,250)"/><rect x="195" y="255" width="10" height="10" transform="rotate(0,200,260)"/><rect x="195" y="265" width="10" height="10" transform="rotate(0,200,270)"/><rect x="195" y="315" width="10" height="10" transform="rotate(0,200,320)"/><rect x="195" y="365" width="10" height="10" transform="rotate(0,200,370)"/><rect x="195" y="395" width="10" height="10" transform="rotate(0,200,400)"/><rect x="195" y="415" width="10" height="10" transform="rotate(0,200,420)"/><rect x="195" y="425" width="10" height="10" transform="rotate(0,200,430)"/><rect x="195" y="435" width="10" height="10" transform="rotate(0,200,440)"/><rect x="195" y="445" width="10" height="10" transform="rotate(0,200,450)"/><rect x="195" y="455" width="10" height="10" transform="rotate(0,200,460)"/><rect x="195" y="465" width="10" height="10" transform="rotate(0,200,470)"/><rect x="205" y="25" width="10" height="10" transform="rotate(0,210,30)"/><rect x="205" y="45" width="10" height="10" transform="rotate(0,210,50)"/><rect x="205" y="55" width="10" height="10" transform="rotate(0,210,60)"/><rect x="205" y="85" width="10" height="10" transform="rotate(0,210,90)"/><rect x="205" y="135" width="10" height="10" transform="rotate(0,210,140)"/><rect x="205" y="145" width="10" height="10" transform="rotate(0,210,150)"/><rect x="205" y="155" width="10" height="10" transform="rotate(0,210,160)"/><rect x="205" y="195" width="10" height="10" transform="rotate(0,210,200)"/><rect x="205" y="205" width="10" height="10" transform="rotate(0,210,210)"/><rect x="205" y="225" width="10" height="10" transform="rotate(0,210,230)"/><rect x="205" y="235" width="10" height="10" transform="rotate(0,210,240)"/><rect x="205" y="285" width="10" height="10" transform="rotate(0,210,290)"/><rect x="205" y="305" width="10" height="10" transform="rotate(0,210,310)"/><rect x="205" y="355" width="10" height="10" transform="rotate(0,210,360)"/><rect x="205" y="365" width="10" height="10" transform="rotate(0,210,370)"/><rect x="205" y="375" width="10" height="10" transform="rotate(0,210,380)"/><rect x="205" y="405" width="10" height="10" transform="rotate(0,210,410)"/><rect x="205" y="415" width="10" height="10" transform="rotate(0,210,420)"/><rect x="205" y="425" width="10" height="10" transform="rotate(0,210,430)"/><rect x="205" y="435" width="10" height="10" transform="rotate(0,210,440)"/><rect x="205" y="445" width="10" height="10" transform="rotate(0,210,450)"/><rect x="205" y="455" width="10" height="10" transform="rotate(0,210,460)"/><rect x="215" y="55" width="10" height="10" transform="rotate(0,220,60)"/><rect x="215" y="95" width="10" height="10" transform="rotate(0,220,100)"/><rect x="215" y="115" width="10" height="10" transform="rotate(0,220,120)"/><rect x="215" y="155" width="10" height="10" transform="rotate(0,220,160)"/><rect x="215" y="175" width="10" height="10" transform="rotate(0,220,180)"/><rect x="215" y="205" width="10" height="10" transform="rotate(0,220,210)"/><rect x="215" y="215" width="10" height="10" transform="rotate(0,220,220)"/><rect x="215" y="235" width="10" height="10" transform="rotate(0,220,240)"/><rect x="215" y="255" width="10" height="10" transform="rotate(0,220,260)"/><rect x="215" y="285" width="10" height="10" transform="rotate(0,220,290)"/><rect x="215" y="295" width="10" height="10" transform="rotate(0,220,300)"/><rect x="215" y="315" width="10" height="10" transform="rotate(0,220,320)"/><rect x="215" y="375" width="10" height="10" transform="rotate(0,220,380)"/><rect x="215" y="395" width="10" height="10" transform="rotate(0,220,400)"/><rect x="215" y="425" width="10" height="10" transform="rotate(0,220,430)"/><rect x="215" y="465" width="10" height="10" transform="rotate(0,220,470)"/><rect x="225" y="35" width="10" height="10" transform="rotate(0,230,40)"/><rect x="225" y="65" width="10" height="10" transform="rotate(0,230,70)"/><rect x="225" y="75" width="10" height="10" transform="rotate(0,230,80)"/><rect x="225" y="85" width="10" height="10" transform="rotate(0,230,90)"/><rect x="225" y="95" width="10" height="10" transform="rotate(0,230,100)"/><rect x="225" y="105" width="10" height="10" transform="rotate(0,230,110)"/><rect x="225" y="145" width="10" height="10" transform="rotate(0,230,150)"/><rect x="225" y="185" width="10" height="10" transform="rotate(0,230,190)"/><rect x="225" y="195" width="10" height="10" transform="rotate(0,230,200)"/><rect x="225" y="205" width="10" height="10" transform="rotate(0,230,210)"/><rect x="225" y="215" width="10" height="10" transform="rotate(0,230,220)"/><rect x="225" y="225" width="10" height="10" transform="rotate(0,230,230)"/><rect x="225" y="235" width="10" height="10" transform="rotate(0,230,240)"/><rect x="225" y="245" width="10" height="10" transform="rotate(0,230,250)"/><rect x="225" y="255" width="10" height="10" transform="rotate(0,230,260)"/><rect x="225" y="265" width="10" height="10" transform="rotate(0,230,270)"/><rect x="225" y="305" width="10" height="10" transform="rotate(0,230,310)"/><rect x="225" y="315" width="10" height="10" transform="rotate(0,230,320)"/><rect x="225" y="335" width="10" height="10" transform="rotate(0,230,340)"/><rect x="225" y="355" width="10" height="10" transform="rotate(0,230,360)"/><rect x="225" y="375" width="10" height="10" transform="rotate(0,230,380)"/><rect x="225" y="385" width="10" height="10" transform="rotate(0,230,390)"/><rect x="225" y="395" width="10" height="10" transform="rotate(0,230,400)"/><rect x="225" y="405" width="10" height="10" transform="rotate(0,230,410)"/><rect x="225" y="415" width="10" height="10" transform="rotate(0,230,420)"/><rect x="225" y="425" width="10" height="10" transform="rotate(0,230,430)"/><rect x="225" y="445" width="10" height="10" transform="rotate(0,230,450)"/><rect x="225" y="455" width="10" height="10" transform="rotate(0,230,460)"/><rect x="235" y="35" width="10" height="10" transform="rotate(0,240,40)"/><rect x="235" y="45" width="10" height="10" transform="rotate(0,240,50)"/><rect x="235" y="55" width="10" height="10" transform="rotate(0,240,60)"/><rect x="235" y="65" width="10" height="10" transform="rotate(0,240,70)"/><rect x="235" y="105" width="10" height="10" transform="rotate(0,240,110)"/><rect x="235" y="115" width="10" height="10" transform="rotate(0,240,120)"/><rect x="235" y="125" width="10" height="10" transform="rotate(0,240,130)"/><rect x="235" y="145" width="10" height="10" transform="rotate(0,240,150)"/><rect x="235" y="155" width="10" height="10" transform="rotate(0,240,160)"/><rect x="235" y="165" width="10" height="10" transform="rotate(0,240,170)"/><rect x="235" y="225" width="10" height="10" transform="rotate(0,240,230)"/><rect x="235" y="265" width="10" height="10" transform="rotate(0,240,270)"/><rect x="235" y="325" width="10" height="10" transform="rotate(0,240,330)"/><rect x="235" y="335" width="10" height="10" transform="rotate(0,240,340)"/><rect x="235" y="375" width="10" height="10" transform="rotate(0,240,380)"/><rect x="235" y="385" width="10" height="10" transform="rotate(0,240,390)"/><rect x="235" y="425" width="10" height="10" transform="rotate(0,240,430)"/><rect x="235" y="465" width="10" height="10" transform="rotate(0,240,470)"/><rect x="245" y="25" width="10" height="10" transform="rotate(0,250,30)"/><rect x="245" y="45" width="10" height="10" transform="rotate(0,250,50)"/><rect x="245" y="65" width="10" height="10" transform="rotate(0,250,70)"/><rect x="245" y="85" width="10" height="10" transform="rotate(0,250,90)"/><rect x="245" y="105" width="10" height="10" transform="rotate(0,250,110)"/><rect x="245" y="155" width="10" height="10" transform="rotate(0,250,160)"/><rect x="245" y="195" width="10" height="10" transform="rotate(0,250,200)"/><rect x="245" y="205" width="10" height="10" transform="rotate(0,250,210)"/><rect x="245" y="225" width="10" height="10" transform="rotate(0,250,230)"/><rect x="245" y="245" width="10" height="10" transform="rotate(0,250,250)"/><rect x="245" y="265" width="10" height="10" transform="rotate(0,250,270)"/><rect x="245" y="275" width="10" height="10" transform="rotate(0,250,280)"/><rect x="245" y="285" width="10" height="10" transform="rotate(0,250,290)"/><rect x="245" y="335" width="10" height="10" transform="rotate(0,250,340)"/><rect x="245" y="365" width="10" height="10" transform="rotate(0,250,370)"/><rect x="245" y="385" width="10" height="10" transform="rotate(0,250,390)"/><rect x="245" y="405" width="10" height="10" transform="rotate(0,250,410)"/><rect x="245" y="425" width="10" height="10" transform="rotate(0,250,430)"/><rect x="245" y="435" width="10" height="10" transform="rotate(0,250,440)"/><rect x="245" y="465" width="10" height="10" transform="rotate(0,250,470)"/><rect x="255" y="35" width="10" height="10" transform="rotate(0,260,40)"/><rect x="255" y="45" width="10" height="10" transform="rotate(0,260,50)"/><rect x="255" y="55" width="10" height="10" transform="rotate(0,260,60)"/><rect x="255" y="65" width="10" height="10" transform="rotate(0,260,70)"/><rect x="255" y="105" width="10" height="10" transform="rotate(0,260,110)"/><rect x="255" y="135" width="10" height="10" transform="rotate(0,260,140)"/><rect x="255" y="145" width="10" height="10" transform="rotate(0,260,150)"/><rect x="255" y="155" width="10" height="10" transform="rotate(0,260,160)"/><rect x="255" y="165" width="10" height="10" transform="rotate(0,260,170)"/><rect x="255" y="205" width="10" height="10" transform="rotate(0,260,210)"/><rect x="255" y="215" width="10" height="10" transform="rotate(0,260,220)"/><rect x="255" y="225" width="10" height="10" transform="rotate(0,260,230)"/><rect x="255" y="265" width="10" height="10" transform="rotate(0,260,270)"/><rect x="255" y="275" width="10" height="10" transform="rotate(0,260,280)"/><rect x="255" y="315" width="10" height="10" transform="rotate(0,260,320)"/><rect x="255" y="345" width="10" height="10" transform="rotate(0,260,350)"/><rect x="255" y="365" width="10" height="10" transform="rotate(0,260,370)"/><rect x="255" y="385" width="10" height="10" transform="rotate(0,260,390)"/><rect x="255" y="425" width="10" height="10" transform="rotate(0,260,430)"/><rect x="255" y="435" width="10" height="10" transform="rotate(0,260,440)"/><rect x="255" y="455" width="10" height="10" transform="rotate(0,260,460)"/><rect x="255" y="465" width="10" height="10" transform="rotate(0,260,470)"/><rect x="265" y="55" width="10" height="10" transform="rotate(0,270,60)"/><rect x="265" y="65" width="10" height="10" transform="rotate(0,270,70)"/><rect x="265" y="75" width="10" height="10" transform="rotate(0,270,80)"/><rect x="265" y="85" width="10" height="10" transform="rotate(0,270,90)"/><rect x="265" y="95" width="10" height="10" transform="rotate(0,270,100)"/><rect x="265" y="105" width="10" height="10" transform="rotate(0,270,110)"/><rect x="265" y="125" width="10" height="10" transform="rotate(0,270,130)"/><rect x="265" y="135" width="10" height="10" transform="rotate(0,270,140)"/><rect x="265" y="145" width="10" height="10" transform="rotate(0,270,150)"/><rect x="265" y="155" width="10" height="10" transform="rotate(0,270,160)"/><rect x="265" y="185" width="10" height="10" transform="rotate(0,270,190)"/><rect x="265" y="205" width="10" height="10" transform="rotate(0,270,210)"/><rect x="265" y="215" width="10" height="10" transform="rotate(0,270,220)"/><rect x="265" y="225" width="10" height="10" transform="rotate(0,270,230)"/><rect x="265" y="235" width="10" height="10" transform="rotate(0,270,240)"/><rect x="265" y="245" width="10" height="10" transform="rotate(0,270,250)"/><rect x="265" y="255" width="10" height="10" transform="rotate(0,270,260)"/><rect x="265" y="265" width="10" height="10" transform="rotate(0,270,270)"/><rect x="265" y="275" width="10" height="10" transform="rotate(0,270,280)"/><rect x="265" y="315" width="10" height="10" transform="rotate(0,270,320)"/><rect x="265" y="335" width="10" height="10" transform="rotate(0,270,340)"/><rect x="265" y="375" width="10" height="10" transform="rotate(0,270,380)"/><rect x="265" y="385" width="10" height="10" transform="rotate(0,270,390)"/><rect x="265" y="395" width="10" height="10" transform="rotate(0,270,400)"/><rect x="265" y="405" width="10" height="10" transform="rotate(0,270,410)"/><rect x="265" y="415" width="10" height="10" transform="rotate(0,270,420)"/><rect x="265" y="425" width="10" height="10" transform="rotate(0,270,430)"/><rect x="265" y="435" width="10" height="10" transform="rotate(0,270,440)"/><rect x="265" y="455" width="10" height="10" transform="rotate(0,270,460)"/><rect x="265" y="465" width="10" height="10" transform="rotate(0,270,470)"/><rect x="275" y="25" width="10" height="10" transform="rotate(0,280,30)"/><rect x="275" y="55" width="10" height="10" transform="rotate(0,280,60)"/><rect x="275" y="95" width="10" height="10" transform="rotate(0,280,100)"/><rect x="275" y="105" width="10" height="10" transform="rotate(0,280,110)"/><rect x="275" y="145" width="10" height="10" transform="rotate(0,280,150)"/><rect x="275" y="155" width="10" height="10" transform="rotate(0,280,160)"/><rect x="275" y="165" width="10" height="10" transform="rotate(0,280,170)"/><rect x="275" y="185" width="10" height="10" transform="rotate(0,280,190)"/><rect x="275" y="205" width="10" height="10" transform="rotate(0,280,210)"/><rect x="275" y="225" width="10" height="10" transform="rotate(0,280,230)"/><rect x="275" y="235" width="10" height="10" transform="rotate(0,280,240)"/><rect x="275" y="255" width="10" height="10" transform="rotate(0,280,260)"/><rect x="275" y="265" width="10" height="10" transform="rotate(0,280,270)"/><rect x="275" y="335" width="10" height="10" transform="rotate(0,280,340)"/><rect x="275" y="355" width="10" height="10" transform="rotate(0,280,360)"/><rect x="275" y="375" width="10" height="10" transform="rotate(0,280,380)"/><rect x="275" y="395" width="10" height="10" transform="rotate(0,280,400)"/><rect x="275" y="455" width="10" height="10" transform="rotate(0,280,460)"/><rect x="285" y="25" width="10" height="10" transform="rotate(0,290,30)"/><rect x="285" y="45" width="10" height="10" transform="rotate(0,290,50)"/><rect x="285" y="55" width="10" height="10" transform="rotate(0,290,60)"/><rect x="285" y="75" width="10" height="10" transform="rotate(0,290,80)"/><rect x="285" y="85" width="10" height="10" transform="rotate(0,290,90)"/><rect x="285" y="95" width="10" height="10" transform="rotate(0,290,100)"/><rect x="285" y="105" width="10" height="10" transform="rotate(0,290,110)"/><rect x="285" y="195" width="10" height="10" transform="rotate(0,290,200)"/><rect x="285" y="205" width="10" height="10" transform="rotate(0,290,210)"/><rect x="285" y="235" width="10" height="10" transform="rotate(0,290,240)"/><rect x="285" y="245" width="10" height="10" transform="rotate(0,290,250)"/><rect x="285" y="285" width="10" height="10" transform="rotate(0,290,290)"/><rect x="285" y="295" width="10" height="10" transform="rotate(0,290,300)"/><rect x="285" y="305" width="10" height="10" transform="rotate(0,290,310)"/><rect x="285" y="315" width="10" height="10" transform="rotate(0,290,320)"/><rect x="285" y="325" width="10" height="10" transform="rotate(0,290,330)"/><rect x="285" y="345" width="10" height="10" transform="rotate(0,290,350)"/><rect x="285" y="355" width="10" height="10" transform="rotate(0,290,360)"/><rect x="285" y="425" width="10" height="10" transform="rotate(0,290,430)"/><rect x="285" y="435" width="10" height="10" transform="rotate(0,290,440)"/><rect x="285" y="445" width="10" height="10" transform="rotate(0,290,450)"/><rect x="295" y="25" width="10" height="10" transform="rotate(0,300,30)"/><rect x="295" y="35" width="10" height="10" transform="rotate(0,300,40)"/><rect x="295" y="65" width="10" height="10" transform="rotate(0,300,70)"/><rect x="295" y="135" width="10" height="10" transform="rotate(0,300,140)"/><rect x="295" y="145" width="10" height="10" transform="rotate(0,300,150)"/><rect x="295" y="155" width="10" height="10" transform="rotate(0,300,160)"/><rect x="295" y="165" width="10" height="10" transform="rotate(0,300,170)"/><rect x="295" y="175" width="10" height="10" transform="rotate(0,300,180)"/><rect x="295" y="195" width="10" height="10" transform="rotate(0,300,200)"/><rect x="295" y="225" width="10" height="10" transform="rotate(0,300,230)"/><rect x="295" y="255" width="10" height="10" transform="rotate(0,300,260)"/><rect x="295" y="295" width="10" height="10" transform="rotate(0,300,300)"/><rect x="295" y="305" width="10" height="10" transform="rotate(0,300,310)"/><rect x="295" y="315" width="10" height="10" transform="rotate(0,300,320)"/><rect x="295" y="325" width="10" height="10" transform="rotate(0,300,330)"/><rect x="295" y="365" width="10" height="10" transform="rotate(0,300,370)"/><rect x="295" y="375" width="10" height="10" transform="rotate(0,300,380)"/><rect x="295" y="385" width="10" height="10" transform="rotate(0,300,390)"/><rect x="295" y="405" width="10" height="10" transform="rotate(0,300,410)"/><rect x="295" y="435" width="10" height="10" transform="rotate(0,300,440)"/><rect x="295" y="445" width="10" height="10" transform="rotate(0,300,450)"/><rect x="305" y="35" width="10" height="10" transform="rotate(0,310,40)"/><rect x="305" y="45" width="10" height="10" transform="rotate(0,310,50)"/><rect x="305" y="55" width="10" height="10" transform="rotate(0,310,60)"/><rect x="305" y="75" width="10" height="10" transform="rotate(0,310,80)"/><rect x="305" y="85" width="10" height="10" transform="rotate(0,310,90)"/><rect x="305" y="95" width="10" height="10" transform="rotate(0,310,100)"/><rect x="305" y="165" width="10" height="10" transform="rotate(0,310,170)"/><rect x="305" y="175" width="10" height="10" transform="rotate(0,310,180)"/><rect x="305" y="185" width="10" height="10" transform="rotate(0,310,190)"/><rect x="305" y="195" width="10" height="10" transform="rotate(0,310,200)"/><rect x="305" y="225" width="10" height="10" transform="rotate(0,310,230)"/><rect x="305" y="235" width="10" height="10" transform="rotate(0,310,240)"/><rect x="305" y="245" width="10" height="10" transform="rotate(0,310,250)"/><rect x="305" y="265" width="10" height="10" transform="rotate(0,310,270)"/><rect x="305" y="285" width="10" height="10" transform="rotate(0,310,290)"/><rect x="305" y="295" width="10" height="10" transform="rotate(0,310,300)"/><rect x="305" y="315" width="10" height="10" transform="rotate(0,310,320)"/><rect x="305" y="345" width="10" height="10" transform="rotate(0,310,350)"/><rect x="305" y="355" width="10" height="10" transform="rotate(0,310,360)"/><rect x="305" y="375" width="10" height="10" transform="rotate(0,310,380)"/><rect x="305" y="385" width="10" height="10" transform="rotate(0,310,390)"/><rect x="305" y="405" width="10" height="10" transform="rotate(0,310,410)"/><rect x="305" y="415" width="10" height="10" transform="rotate(0,310,420)"/><rect x="305" y="425" width="10" height="10" transform="rotate(0,310,430)"/><rect x="305" y="435" width="10" height="10" transform="rotate(0,310,440)"/><rect x="305" y="445" width="10" height="10" transform="rotate(0,310,450)"/><rect x="305" y="455" width="10" height="10" transform="rotate(0,310,460)"/><rect x="315" y="35" width="10" height="10" transform="rotate(0,320,40)"/><rect x="315" y="45" width="10" height="10" transform="rotate(0,320,50)"/><rect x="315" y="65" width="10" height="10" transform="rotate(0,320,70)"/><rect x="315" y="75" width="10" height="10" transform="rotate(0,320,80)"/><rect x="315" y="95" width="10" height="10" transform="rotate(0,320,100)"/><rect x="315" y="105" width="10" height="10" transform="rotate(0,320,110)"/><rect x="315" y="115" width="10" height="10" transform="rotate(0,320,120)"/><rect x="315" y="125" width="10" height="10" transform="rotate(0,320,130)"/><rect x="315" y="135" width="10" height="10" transform="rotate(0,320,140)"/><rect x="315" y="155" width="10" height="10" transform="rotate(0,320,160)"/><rect x="315" y="165" width="10" height="10" transform="rotate(0,320,170)"/><rect x="315" y="175" width="10" height="10" transform="rotate(0,320,180)"/><rect x="315" y="205" width="10" height="10" transform="rotate(0,320,210)"/><rect x="315" y="225" width="10" height="10" transform="rotate(0,320,230)"/><rect x="315" y="235" width="10" height="10" transform="rotate(0,320,240)"/><rect x="315" y="245" width="10" height="10" transform="rotate(0,320,250)"/><rect x="315" y="255" width="10" height="10" transform="rotate(0,320,260)"/><rect x="315" y="265" width="10" height="10" transform="rotate(0,320,270)"/><rect x="315" y="275" width="10" height="10" transform="rotate(0,320,280)"/><rect x="315" y="295" width="10" height="10" transform="rotate(0,320,300)"/><rect x="315" y="305" width="10" height="10" transform="rotate(0,320,310)"/><rect x="315" y="315" width="10" height="10" transform="rotate(0,320,320)"/><rect x="315" y="335" width="10" height="10" transform="rotate(0,320,340)"/><rect x="315" y="365" width="10" height="10" transform="rotate(0,320,370)"/><rect x="315" y="375" width="10" height="10" transform="rotate(0,320,380)"/><rect x="315" y="405" width="10" height="10" transform="rotate(0,320,410)"/><rect x="315" y="415" width="10" height="10" transform="rotate(0,320,420)"/><rect x="315" y="425" width="10" height="10" transform="rotate(0,320,430)"/><rect x="315" y="435" width="10" height="10" transform="rotate(0,320,440)"/><rect x="315" y="465" width="10" height="10" transform="rotate(0,320,470)"/><rect x="325" y="35" width="10" height="10" transform="rotate(0,330,40)"/><rect x="325" y="45" width="10" height="10" transform="rotate(0,330,50)"/><rect x="325" y="55" width="10" height="10" transform="rotate(0,330,60)"/><rect x="325" y="85" width="10" height="10" transform="rotate(0,330,90)"/><rect x="325" y="95" width="10" height="10" transform="rotate(0,330,100)"/><rect x="325" y="115" width="10" height="10" transform="rotate(0,330,120)"/><rect x="325" y="155" width="10" height="10" transform="rotate(0,330,160)"/><rect x="325" y="165" width="10" height="10" transform="rotate(0,330,170)"/><rect x="325" y="175" width="10" height="10" transform="rotate(0,330,180)"/><rect x="325" y="185" width="10" height="10" transform="rotate(0,330,190)"/><rect x="325" y="225" width="10" height="10" transform="rotate(0,330,230)"/><rect x="325" y="235" width="10" height="10" transform="rotate(0,330,240)"/><rect x="325" y="245" width="10" height="10" transform="rotate(0,330,250)"/><rect x="325" y="265" width="10" height="10" transform="rotate(0,330,270)"/><rect x="325" y="275" width="10" height="10" transform="rotate(0,330,280)"/><rect x="325" y="295" width="10" height="10" transform="rotate(0,330,300)"/><rect x="325" y="335" width="10" height="10" transform="rotate(0,330,340)"/><rect x="325" y="355" width="10" height="10" transform="rotate(0,330,360)"/><rect x="325" y="365" width="10" height="10" transform="rotate(0,330,370)"/><rect x="325" y="385" width="10" height="10" transform="rotate(0,330,390)"/><rect x="325" y="395" width="10" height="10" transform="rotate(0,330,400)"/><rect x="325" y="415" width="10" height="10" transform="rotate(0,330,420)"/><rect x="325" y="435" width="10" height="10" transform="rotate(0,330,440)"/><rect x="325" y="445" width="10" height="10" transform="rotate(0,330,450)"/><rect x="325" y="455" width="10" height="10" transform="rotate(0,330,460)"/><rect x="335" y="25" width="10" height="10" transform="rotate(0,340,30)"/><rect x="335" y="55" width="10" height="10" transform="rotate(0,340,60)"/><rect x="335" y="65" width="10" height="10" transform="rotate(0,340,70)"/><rect x="335" y="95" width="10" height="10" transform="rotate(0,340,100)"/><rect x="335" y="105" width="10" height="10" transform="rotate(0,340,110)"/><rect x="335" y="115" width="10" height="10" transform="rotate(0,340,120)"/><rect x="335" y="135" width="10" height="10" transform="rotate(0,340,140)"/><rect x="335" y="185" width="10" height="10" transform="rotate(0,340,190)"/><rect x="335" y="195" width="10" height="10" transform="rotate(0,340,200)"/><rect x="335" y="235" width="10" height="10" transform="rotate(0,340,240)"/><rect x="335" y="245" width="10" height="10" transform="rotate(0,340,250)"/><rect x="335" y="265" width="10" height="10" transform="rotate(0,340,270)"/><rect x="335" y="275" width="10" height="10" transform="rotate(0,340,280)"/><rect x="335" y="305" width="10" height="10" transform="rotate(0,340,310)"/><rect x="335" y="315" width="10" height="10" transform="rotate(0,340,320)"/><rect x="335" y="335" width="10" height="10" transform="rotate(0,340,340)"/><rect x="335" y="385" width="10" height="10" transform="rotate(0,340,390)"/><rect x="335" y="395" width="10" height="10" transform="rotate(0,340,400)"/><rect x="335" y="415" width="10" height="10" transform="rotate(0,340,420)"/><rect x="335" y="455" width="10" height="10" transform="rotate(0,340,460)"/><rect x="335" y="465" width="10" height="10" transform="rotate(0,340,470)"/><rect x="345" y="25" width="10" height="10" transform="rotate(0,350,30)"/><rect x="345" y="35" width="10" height="10" transform="rotate(0,350,40)"/><rect x="345" y="45" width="10" height="10" transform="rotate(0,350,50)"/><rect x="345" y="55" width="10" height="10" transform="rotate(0,350,60)"/><rect x="345" y="75" width="10" height="10" transform="rotate(0,350,80)"/><rect x="345" y="85" width="10" height="10" transform="rotate(0,350,90)"/><rect x="345" y="135" width="10" height="10" transform="rotate(0,350,140)"/><rect x="345" y="145" width="10" height="10" transform="rotate(0,350,150)"/><rect x="345" y="205" width="10" height="10" transform="rotate(0,350,210)"/><rect x="345" y="215" width="10" height="10" transform="rotate(0,350,220)"/><rect x="345" y="245" width="10" height="10" transform="rotate(0,350,250)"/><rect x="345" y="255" width="10" height="10" transform="rotate(0,350,260)"/><rect x="345" y="265" width="10" height="10" transform="rotate(0,350,270)"/><rect x="345" y="275" width="10" height="10" transform="rotate(0,350,280)"/><rect x="345" y="295" width="10" height="10" transform="rotate(0,350,300)"/><rect x="345" y="305" width="10" height="10" transform="rotate(0,350,310)"/><rect x="345" y="315" width="10" height="10" transform="rotate(0,350,320)"/><rect x="345" y="325" width="10" height="10" transform="rotate(0,350,330)"/><rect x="345" y="355" width="10" height="10" transform="rotate(0,350,360)"/><rect x="345" y="365" width="10" height="10" transform="rotate(0,350,370)"/><rect x="345" y="385" width="10" height="10" transform="rotate(0,350,390)"/><rect x="345" y="435" width="10" height="10" transform="rotate(0,350,440)"/><rect x="345" y="445" width="10" height="10" transform="rotate(0,350,450)"/><rect x="345" y="455" width="10" height="10" transform="rotate(0,350,460)"/><rect x="355" y="25" width="10" height="10" transform="rotate(0,360,30)"/><rect x="355" y="45" width="10" height="10" transform="rotate(0,360,50)"/><rect x="355" y="75" width="10" height="10" transform="rotate(0,360,80)"/><rect x="355" y="95" width="10" height="10" transform="rotate(0,360,100)"/><rect x="355" y="105" width="10" height="10" transform="rotate(0,360,110)"/><rect x="355" y="135" width="10" height="10" transform="rotate(0,360,140)"/><rect x="355" y="155" width="10" height="10" transform="rotate(0,360,160)"/><rect x="355" y="175" width="10" height="10" transform="rotate(0,360,180)"/><rect x="355" y="185" width="10" height="10" transform="rotate(0,360,190)"/><rect x="355" y="195" width="10" height="10" transform="rotate(0,360,200)"/><rect x="355" y="205" width="10" height="10" transform="rotate(0,360,210)"/><rect x="355" y="225" width="10" height="10" transform="rotate(0,360,230)"/><rect x="355" y="255" width="10" height="10" transform="rotate(0,360,260)"/><rect x="355" y="315" width="10" height="10" transform="rotate(0,360,320)"/><rect x="355" y="325" width="10" height="10" transform="rotate(0,360,330)"/><rect x="355" y="385" width="10" height="10" transform="rotate(0,360,390)"/><rect x="355" y="455" width="10" height="10" transform="rotate(0,360,460)"/><rect x="355" y="465" width="10" height="10" transform="rotate(0,360,470)"/><rect x="365" y="65" width="10" height="10" transform="rotate(0,370,70)"/><rect x="365" y="85" width="10" height="10" transform="rotate(0,370,90)"/><rect x="365" y="115" width="10" height="10" transform="rotate(0,370,120)"/><rect x="365" y="145" width="10" height="10" transform="rotate(0,370,150)"/><rect x="365" y="155" width="10" height="10" transform="rotate(0,370,160)"/><rect x="365" y="165" width="10" height="10" transform="rotate(0,370,170)"/><rect x="365" y="185" width="10" height="10" transform="rotate(0,370,190)"/><rect x="365" y="195" width="10" height="10" transform="rotate(0,370,200)"/><rect x="365" y="235" width="10" height="10" transform="rotate(0,370,240)"/><rect x="365" y="255" width="10" height="10" transform="rotate(0,370,260)"/><rect x="365" y="295" width="10" height="10" transform="rotate(0,370,300)"/><rect x="365" y="325" width="10" height="10" transform="rotate(0,370,330)"/><rect x="365" y="335" width="10" height="10" transform="rotate(0,370,340)"/><rect x="365" y="345" width="10" height="10" transform="rotate(0,370,350)"/><rect x="365" y="355" width="10" height="10" transform="rotate(0,370,360)"/><rect x="365" y="365" width="10" height="10" transform="rotate(0,370,370)"/><rect x="365" y="385" width="10" height="10" transform="rotate(0,370,390)"/><rect x="365" y="395" width="10" height="10" transform="rotate(0,370,400)"/><rect x="365" y="405" width="10" height="10" transform="rotate(0,370,410)"/><rect x="365" y="415" width="10" height="10" transform="rotate(0,370,420)"/><rect x="365" y="425" width="10" height="10" transform="rotate(0,370,430)"/><rect x="365" y="435" width="10" height="10" transform="rotate(0,370,440)"/><rect x="365" y="455" width="10" height="10" transform="rotate(0,370,460)"/><rect x="365" y="465" width="10" height="10" transform="rotate(0,370,470)"/><rect x="375" y="35" width="10" height="10" transform="rotate(0,380,40)"/><rect x="375" y="45" width="10" height="10" transform="rotate(0,380,50)"/><rect x="375" y="55" width="10" height="10" transform="rotate(0,380,60)"/><rect x="375" y="65" width="10" height="10" transform="rotate(0,380,70)"/><rect x="375" y="95" width="10" height="10" transform="rotate(0,380,100)"/><rect x="375" y="115" width="10" height="10" transform="rotate(0,380,120)"/><rect x="375" y="135" width="10" height="10" transform="rotate(0,380,140)"/><rect x="375" y="145" width="10" height="10" transform="rotate(0,380,150)"/><rect x="375" y="195" width="10" height="10" transform="rotate(0,380,200)"/><rect x="375" y="215" width="10" height="10" transform="rotate(0,380,220)"/><rect x="375" y="225" width="10" height="10" transform="rotate(0,380,230)"/><rect x="375" y="275" width="10" height="10" transform="rotate(0,380,280)"/><rect x="375" y="295" width="10" height="10" transform="rotate(0,380,300)"/><rect x="375" y="315" width="10" height="10" transform="rotate(0,380,320)"/><rect x="375" y="325" width="10" height="10" transform="rotate(0,380,330)"/><rect x="375" y="335" width="10" height="10" transform="rotate(0,380,340)"/><rect x="375" y="345" width="10" height="10" transform="rotate(0,380,350)"/><rect x="375" y="355" width="10" height="10" transform="rotate(0,380,360)"/><rect x="375" y="365" width="10" height="10" transform="rotate(0,380,370)"/><rect x="375" y="375" width="10" height="10" transform="rotate(0,380,380)"/><rect x="375" y="385" width="10" height="10" transform="rotate(0,380,390)"/><rect x="375" y="395" width="10" height="10" transform="rotate(0,380,400)"/><rect x="375" y="405" width="10" height="10" transform="rotate(0,380,410)"/><rect x="375" y="415" width="10" height="10" transform="rotate(0,380,420)"/><rect x="375" y="425" width="10" height="10" transform="rotate(0,380,430)"/><rect x="375" y="435" width="10" height="10" transform="rotate(0,380,440)"/><rect x="385" y="25" width="10" height="10" transform="rotate(0,390,30)"/><rect x="385" y="55" width="10" height="10" transform="rotate(0,390,60)"/><rect x="385" y="65" width="10" height="10" transform="rotate(0,390,70)"/><rect x="385" y="85" width="10" height="10" transform="rotate(0,390,90)"/><rect x="385" y="135" width="10" height="10" transform="rotate(0,390,140)"/><rect x="385" y="145" width="10" height="10" transform="rotate(0,390,150)"/><rect x="385" y="165" width="10" height="10" transform="rotate(0,390,170)"/><rect x="385" y="175" width="10" height="10" transform="rotate(0,390,180)"/><rect x="385" y="185" width="10" height="10" transform="rotate(0,390,190)"/><rect x="385" y="195" width="10" height="10" transform="rotate(0,390,200)"/><rect x="385" y="215" width="10" height="10" transform="rotate(0,390,220)"/><rect x="385" y="225" width="10" height="10" transform="rotate(0,390,230)"/><rect x="385" y="235" width="10" height="10" transform="rotate(0,390,240)"/><rect x="385" y="245" width="10" height="10" transform="rotate(0,390,250)"/><rect x="385" y="255" width="10" height="10" transform="rotate(0,390,260)"/><rect x="385" y="265" width="10" height="10" transform="rotate(0,390,270)"/><rect x="385" y="275" width="10" height="10" transform="rotate(0,390,280)"/><rect x="385" y="315" width="10" height="10" transform="rotate(0,390,320)"/><rect x="385" y="325" width="10" height="10" transform="rotate(0,390,330)"/><rect x="385" y="335" width="10" height="10" transform="rotate(0,390,340)"/><rect x="385" y="385" width="10" height="10" transform="rotate(0,390,390)"/><rect x="385" y="395" width="10" height="10" transform="rotate(0,390,400)"/><rect x="385" y="405" width="10" height="10" transform="rotate(0,390,410)"/><rect x="385" y="415" width="10" height="10" transform="rotate(0,390,420)"/><rect x="385" y="425" width="10" height="10" transform="rotate(0,390,430)"/><rect x="385" y="435" width="10" height="10" transform="rotate(0,390,440)"/><rect x="395" y="105" width="10" height="10" transform="rotate(0,400,110)"/><rect x="395" y="115" width="10" height="10" transform="rotate(0,400,120)"/><rect x="395" y="165" width="10" height="10" transform="rotate(0,400,170)"/><rect x="395" y="175" width="10" height="10" transform="rotate(0,400,180)"/><rect x="395" y="205" width="10" height="10" transform="rotate(0,400,210)"/><rect x="395" y="225" width="10" height="10" transform="rotate(0,400,230)"/><rect x="395" y="265" width="10" height="10" transform="rotate(0,400,270)"/><rect x="395" y="275" width="10" height="10" transform="rotate(0,400,280)"/><rect x="395" y="285" width="10" height="10" transform="rotate(0,400,290)"/><rect x="395" y="295" width="10" height="10" transform="rotate(0,400,300)"/><rect x="395" y="335" width="10" height="10" transform="rotate(0,400,340)"/><rect x="395" y="345" width="10" height="10" transform="rotate(0,400,350)"/><rect x="395" y="355" width="10" height="10" transform="rotate(0,400,360)"/><rect x="395" y="385" width="10" height="10" transform="rotate(0,400,390)"/><rect x="395" y="425" width="10" height="10" transform="rotate(0,400,430)"/><rect x="405" y="125" width="10" height="10" transform="rotate(0,410,130)"/><rect x="405" y="135" width="10" height="10" transform="rotate(0,410,140)"/><rect x="405" y="165" width="10" height="10" transform="rotate(0,410,170)"/><rect x="405" y="195" width="10" height="10" transform="rotate(0,410,200)"/><rect x="405" y="205" width="10" height="10" transform="rotate(0,410,210)"/><rect x="405" y="215" width="10" height="10" transform="rotate(0,410,220)"/><rect x="405" y="225" width="10" height="10" transform="rotate(0,410,230)"/><rect x="405" y="245" width="10" height="10" transform="rotate(0,410,250)"/><rect x="405" y="265" width="10" height="10" transform="rotate(0,410,270)"/><rect x="405" y="305" width="10" height="10" transform="rotate(0,410,310)"/><rect x="405" y="325" width="10" height="10" transform="rotate(0,410,330)"/><rect x="405" y="345" width="10" height="10" transform="rotate(0,410,350)"/><rect x="405" y="355" width="10" height="10" transform="rotate(0,410,360)"/><rect x="405" y="375" width="10" height="10" transform="rotate(0,410,380)"/><rect x="405" y="385" width="10" height="10" transform="rotate(0,410,390)"/><rect x="405" y="405" width="10" height="10" transform="rotate(0,410,410)"/><rect x="405" y="425" width="10" height="10" transform="rotate(0,410,430)"/><rect x="415" y="105" width="10" height="10" transform="rotate(0,420,110)"/><rect x="415" y="135" width="10" height="10" transform="rotate(0,420,140)"/><rect x="415" y="145" width="10" height="10" transform="rotate(0,420,150)"/><rect x="415" y="165" width="10" height="10" transform="rotate(0,420,170)"/><rect x="415" y="195" width="10" height="10" transform="rotate(0,420,200)"/><rect x="415" y="205" width="10" height="10" transform="rotate(0,420,210)"/><rect x="415" y="215" width="10" height="10" transform="rotate(0,420,220)"/><rect x="415" y="225" width="10" height="10" transform="rotate(0,420,230)"/><rect x="415" y="265" width="10" height="10" transform="rotate(0,420,270)"/><rect x="415" y="285" width="10" height="10" transform="rotate(0,420,290)"/><rect x="415" y="295" width="10" height="10" transform="rotate(0,420,300)"/><rect x="415" y="305" width="10" height="10" transform="rotate(0,420,310)"/><rect x="415" y="345" width="10" height="10" transform="rotate(0,420,350)"/><rect x="415" y="365" width="10" height="10" transform="rotate(0,420,370)"/><rect x="415" y="375" width="10" height="10" transform="rotate(0,420,380)"/><rect x="415" y="385" width="10" height="10" transform="rotate(0,420,390)"/><rect x="415" y="425" width="10" height="10" transform="rotate(0,420,430)"/><rect x="415" y="435" width="10" height="10" transform="rotate(0,420,440)"/><rect x="415" y="445" width="10" height="10" transform="rotate(0,420,450)"/><rect x="415" y="455" width="10" height="10" transform="rotate(0,420,460)"/><rect x="415" y="465" width="10" height="10" transform="rotate(0,420,470)"/><rect x="425" y="115" width="10" height="10" transform="rotate(0,430,120)"/><rect x="425" y="125" width="10" height="10" transform="rotate(0,430,130)"/><rect x="425" y="145" width="10" height="10" transform="rotate(0,430,150)"/><rect x="425" y="175" width="10" height="10" transform="rotate(0,430,180)"/><rect x="425" y="185" width="10" height="10" transform="rotate(0,430,190)"/><rect x="425" y="195" width="10" height="10" transform="rotate(0,430,200)"/><rect x="425" y="215" width="10" height="10" transform="rotate(0,430,220)"/><rect x="425" y="225" width="10" height="10" transform="rotate(0,430,230)"/><rect x="425" y="235" width="10" height="10" transform="rotate(0,430,240)"/><rect x="425" y="245" width="10" height="10" transform="rotate(0,430,250)"/><rect x="425" y="255" width="10" height="10" transform="rotate(0,430,260)"/><rect x="425" y="265" width="10" height="10" transform="rotate(0,430,270)"/><rect x="425" y="335" width="10" height="10" transform="rotate(0,430,340)"/><rect x="425" y="345" width="10" height="10" transform="rotate(0,430,350)"/><rect x="425" y="355" width="10" height="10" transform="rotate(0,430,360)"/><rect x="425" y="365" width="10" height="10" transform="rotate(0,430,370)"/><rect x="425" y="385" width="10" height="10" transform="rotate(0,430,390)"/><rect x="425" y="395" width="10" height="10" transform="rotate(0,430,400)"/><rect x="425" y="405" width="10" height="10" transform="rotate(0,430,410)"/><rect x="425" y="415" width="10" height="10" transform="rotate(0,430,420)"/><rect x="425" y="425" width="10" height="10" transform="rotate(0,430,430)"/><rect x="425" y="435" width="10" height="10" transform="rotate(0,430,440)"/><rect x="425" y="445" width="10" height="10" transform="rotate(0,430,450)"/><rect x="435" y="105" width="10" height="10" transform="rotate(0,440,110)"/><rect x="435" y="135" width="10" height="10" transform="rotate(0,440,140)"/><rect x="435" y="175" width="10" height="10" transform="rotate(0,440,180)"/><rect x="435" y="195" width="10" height="10" transform="rotate(0,440,200)"/><rect x="435" y="205" width="10" height="10" transform="rotate(0,440,210)"/><rect x="435" y="215" width="10" height="10" transform="rotate(0,440,220)"/><rect x="435" y="225" width="10" height="10" transform="rotate(0,440,230)"/><rect x="435" y="245" width="10" height="10" transform="rotate(0,440,250)"/><rect x="435" y="295" width="10" height="10" transform="rotate(0,440,300)"/><rect x="435" y="315" width="10" height="10" transform="rotate(0,440,320)"/><rect x="435" y="335" width="10" height="10" transform="rotate(0,440,340)"/><rect x="435" y="345" width="10" height="10" transform="rotate(0,440,350)"/><rect x="435" y="365" width="10" height="10" transform="rotate(0,440,370)"/><rect x="435" y="385" width="10" height="10" transform="rotate(0,440,390)"/><rect x="435" y="395" width="10" height="10" transform="rotate(0,440,400)"/><rect x="435" y="415" width="10" height="10" transform="rotate(0,440,420)"/><rect x="435" y="435" width="10" height="10" transform="rotate(0,440,440)"/><rect x="445" y="105" width="10" height="10" transform="rotate(0,450,110)"/><rect x="445" y="115" width="10" height="10" transform="rotate(0,450,120)"/><rect x="445" y="145" width="10" height="10" transform="rotate(0,450,150)"/><rect x="445" y="155" width="10" height="10" transform="rotate(0,450,160)"/><rect x="445" y="165" width="10" height="10" transform="rotate(0,450,170)"/><rect x="445" y="175" width="10" height="10" transform="rotate(0,450,180)"/><rect x="445" y="215" width="10" height="10" transform="rotate(0,450,220)"/><rect x="445" y="235" width="10" height="10" transform="rotate(0,450,240)"/><rect x="445" y="255" width="10" height="10" transform="rotate(0,450,260)"/><rect x="445" y="275" width="10" height="10" transform="rotate(0,450,280)"/><rect x="445" y="285" width="10" height="10" transform="rotate(0,450,290)"/><rect x="445" y="315" width="10" height="10" transform="rotate(0,450,320)"/><rect x="445" y="335" width="10" height="10" transform="rotate(0,450,340)"/><rect x="445" y="355" width="10" height="10" transform="rotate(0,450,360)"/><rect x="445" y="365" width="10" height="10" transform="rotate(0,450,370)"/><rect x="445" y="385" width="10" height="10" transform="rotate(0,450,390)"/><rect x="445" y="445" width="10" height="10" transform="rotate(0,450,450)"/><rect x="445" y="455" width="10" height="10" transform="rotate(0,450,460)"/><rect x="455" y="105" width="10" height="10" transform="rotate(0,460,110)"/><rect x="455" y="135" width="10" height="10" transform="rotate(0,460,140)"/><rect x="455" y="145" width="10" height="10" transform="rotate(0,460,150)"/><rect x="455" y="155" width="10" height="10" transform="rotate(0,460,160)"/><rect x="455" y="175" width="10" height="10" transform="rotate(0,460,180)"/><rect x="455" y="185" width="10" height="10" transform="rotate(0,460,190)"/><rect x="455" y="215" width="10" height="10" transform="rotate(0,460,220)"/><rect x="455" y="225" width="10" height="10" transform="rotate(0,460,230)"/><rect x="455" y="235" width="10" height="10" transform="rotate(0,460,240)"/><rect x="455" y="245" width="10" height="10" transform="rotate(0,460,250)"/><rect x="455" y="255" width="10" height="10" transform="rotate(0,460,260)"/><rect x="455" y="265" width="10" height="10" transform="rotate(0,460,270)"/><rect x="455" y="325" width="10" height="10" transform="rotate(0,460,330)"/><rect x="455" y="355" width="10" height="10" transform="rotate(0,460,360)"/><rect x="455" y="365" width="10" height="10" transform="rotate(0,460,370)"/><rect x="455" y="395" width="10" height="10" transform="rotate(0,460,400)"/><rect x="455" y="405" width="10" height="10" transform="rotate(0,460,410)"/><rect x="455" y="465" width="10" height="10" transform="rotate(0,460,470)"/><rect x="465" y="115" width="10" height="10" transform="rotate(0,470,120)"/><rect x="465" y="125" width="10" height="10" transform="rotate(0,470,130)"/><rect x="465" y="165" width="10" height="10" transform="rotate(0,470,170)"/><rect x="465" y="175" width="10" height="10" transform="rotate(0,470,180)"/><rect x="465" y="195" width="10" height="10" transform="rotate(0,470,200)"/><rect x="465" y="225" width="10" height="10" transform="rotate(0,470,230)"/><rect x="465" y="245" width="10" height="10" transform="rotate(0,470,250)"/><rect x="465" y="275" width="10" height="10" transform="rotate(0,470,280)"/><rect x="465" y="285" width="10" height="10" transform="rotate(0,470,290)"/><rect x="465" y="295" width="10" height="10" transform="rotate(0,470,300)"/><rect x="465" y="325" width="10" height="10" transform="rotate(0,470,330)"/><rect x="465" y="355" width="10" height="10" transform="rotate(0,470,360)"/><rect x="465" y="375" width="10" height="10" transform="rotate(0,470,380)"/><rect x="465" y="405" width="10" height="10" transform="rotate(0,470,410)"/><rect x="465" y="415" width="10" height="10" transform="rotate(0,470,420)"/><rect x="465" y="425" width="10" height="10" transform="rotate(0,470,430)"/><rect x="465" y="445" width="10" height="10" transform="rotate(0,470,450)"/></clipPath><clipPath id="clip-path-corners-square-color-0-0"><path clip-rule="evenodd" d="M 25 25v 70h 70v -70zM 35 35h 50v 50h -50z" transform="rotate(0,60,60)"/></clipPath><clipPath id="clip-path-corners-dot-color-0-0"><rect x="45" y="45" width="30" height="30" transform="rotate(0,60,60)"/></clipPath><clipPath id="clip-path-corners-square-color-1-0"><path clip-rule="evenodd" d="M 405 25v 70h 70v -70zM 415 35h 50v 50h -50z" transform="rotate(90,440,60)"/></clipPath><clipPath id="clip-path-corners-dot-color-1-0"><rect x="425" y="45" width="30" height="30" transform="rotate(90,440,60)"/></clipPath><clipPath id="clip-path-corners-square-color-0-1"><path clip-rule="evenodd" d="M 25 405v 70h 70v -70zM 35 415h 50v 50h -50z" transform="rotate(-90,60,440)"/></clipPath><clipPath id="clip-path-corners-dot-color-0-1"><rect x="45" y="425" width="30" height="30" transform="rotate(-90,60,440)"/></clipPath></defs><rect x="0" y="0" height="500" width="500" clip-path="url('#clip-path-background-color')" fill="#fff"/><rect x="0" y="0" height="500" width="500" clip-path="url('#clip-path-dot-color')" fill="#000000"/><rect x="25" y="25" height="70" width="70" clip-path="url('#clip-path-corners-square-color-0-0')" fill="#000000"/><rect x="45" y="45" height="30" width="30" clip-path="url('#clip-path-corners-dot-color-0-0')" fill="#000000"/><rect x="405" y="25" height="70" width="70" clip-path="url('#clip-path-corners-square-color-1-0')" fill="#000000"/><rect x="425" y="45" height="30" width="30" clip-path="url('#clip-path-corners-dot-color-1-0')" fill="#000000"/><rect x="25" y="405" height="70" width="70" clip-path="url('#clip-path-corners-square-color-0-1')" fill="#000000"/><rect x="45" y="425" height="30" width="30" clip-path="url('#clip-path-corners-dot-color-0-1')" fill="#000000"/></svg>